{"title":"Kacey - FabSluts -Insatiable skank fits dick in her rear entranc","uid":11092229,"size":432101608,"categoryP":"porn","categoryS":"movie_clips","magnet":"?xt=urn:btih:ccb17d7e18e39e132f047c7aeb97b604d0a7e437&amp;dn=Kacey+-+FabSluts+-Insatiable+skank+fits+dick+in+her+rear+entranc&amp;tr=udp%3A%2F%2Ftracker.openbittorrent.com%3A80&amp;tr=udp%3A%2F%2Fopen.demonii.com%3A1337&amp;tr=udp%3A%2F%2Ftracker.coppersurfer.tk%3A6969&amp;tr=udp%3A%2F%2Fexodus.desync.com%3A6969","seeders":0,"leechers":0,"uploader":"athklym","files":-1,"time":1411540287,"description":" &lt;a href=&quot;http://bayimg.com/laAhBaAgj&quot; rel=&quot;nofollow&quot; target=&quot;_NEW&quot;&gt;http://bayimg.com/laAhBaAgj&lt;/a&gt;\n\nSeductive babe Kacey does a sexy striptease number to flaunt her smoking hot curves and give her man a nice boner. She looks stunning as she caresses her perky tits and spreads her butt cheeks to show off her pink muff. Craving a dick in her ass, she stuffs a sex toy in there and invites her man to abuse her hole. He can't believe how tight her booty is and starts pumping her faster and faster, till her hole is wide open and her body starts shaking from her first anal orgasm. \n\nKacey_Insatiable_skank_fits_dick_in_her_rear_entrance_FabSluts.mp4\nFormat                                   : MPEG-4\nFormat profile                           : Base Media\nCodec ID                                 : isom\nFile size                                : 412 MiB\nDuration                                 : 43mn 10s\nOverall bit rate mode                    : Variable\nOverall bit rate                         : 1 334 Kbps\nEncoded date                             : UTC 2014-09-24 03:39:05\nTagged date                              : UTC 2014-09-24 03:39:05\nWriting application                      : vlc 2.1.5 stream output\nComment                                  : QuickTime 6.0 or greater\n\nVideo\nID                                       : 2\nFormat                                   : AVC\nFormat/Info                              : Advanced Video Codec\nFormat profile                           : &lt;a class=&quot;__cf_email__&quot; href=&quot;/cdn-cgi/l/email-protection&quot; data-cfemail=&quot;3179585659717d021f00&quot;&gt;[email&amp;#160;protected]&lt;/a&gt;&lt;script data-cfhash='f9e31' type=&quot;text/javascript&quot;&gt;\n/* &lt;![CDATA[ */!function(){try{var t=&quot;currentScript&quot;in document?document.currentScript:function(){for(var t=document.getElementsByTagName(&quot;script&quot;),e=t.length;e--;)if(t[e].getAttribute(&quot;data-cfhash&quot;))return t[e]}();if(t&amp;&amp;t.previousSibling){var e,r,n,i,c=t.previousSibling,a=c.getAttribute(&quot;data-cfemail&quot;);if(a){for(e=&quot;&quot;,r=parseInt(a.substr(0,2),16),n=2;a.length-n;n+=2)i=parseInt(a.substr(n,2),16)^r,e+=String.fromCharCode(i);e=document.createTextNode(e),c.parentNode.replaceChild(e,c)}t.parentNode.removeChild(t);}}catch(u){}}()/* ]]&gt; */&lt;/script&gt;\nFormat settings, CABAC                   : Yes\nFormat settings, ReFrames                : 4 frames\nCodec ID                                 : avc1\nCodec ID/Info                            : Advanced Video Coding\nDuration                                 : 43mn 10s\nSource duration                          : 43mn 10s\nBit rate                                 : 1 202 Kbps\nWidth                                    : 960 pixels\nHeight                                   : 540 pixels\nDisplay aspect ratio                     : 16:9\nFrame rate mode                          : Variable\nFrame rate                               : 14.987 fps\nOriginal frame rate                      : 14.985 fps\nMinimum frame rate                       : 9.990 fps\nMaximum frame rate                       : 1000 000.000 fps\nColor space                              : YUV\nChroma subsampling                       : 4:2:0\nBit depth                                : 8 bits\nScan type                                : Progressive\nBits/(Pixel*Frame)                       : 0.155\nStream size                              : 371 MiB (90%)\nSource stream size                       : 371 MiB (90%)\nLanguage                                 : English\nEncoded date                             : UTC 2014-09-24 03:39:05\nTagged date                              : UTC 2014-09-24 03:39:05\nmdhd_Duration                            : 2590388\n\nAudio\nID                                       : 1\nFormat                                   : AAC\nFormat/Info                              : Advanced Audio Codec\nFormat profile                           : LC\nCodec ID                                 : 40\nDuration                                 : 43mn 10s\nSource duration                          : 43mn 10s\nBit rate mode                            : Variable\nBit rate                                 : 128 Kbps\nMaximum bit rate                         : 245 Kbps\nChannel(s)                               : 2 channels\nChannel positions                        : Front: L R\nSampling rate                            : 44.1 KHz\nCompression mode                         : Lossy\nStream size                              : 39.5 MiB (10%)\nSource stream size                       : 39.5 MiB (10%)\nLanguage                                 : English\nEncoded date                             : UTC 2014-09-24 03:39:05\nTagged date                              : UTC 2014-09-24 03:39:05\nmdhd_Duration                            : 2590511\n\n","torrent":{"xt":"urn:btih:ccb17d7e18e39e132f047c7aeb97b604d0a7e437","amp;dn":"Kacey+-+FabSluts+-Insatiable+skank+fits+dick+in+her+rear+entranc","amp;tr":["udp%3A%2F%2Ftracker.openbittorrent.com%3A80","udp%3A%2F%2Fopen.demonii.com%3A1337","udp%3A%2F%2Ftracker.coppersurfer.tk%3A6969","udp%3A%2F%2Fexodus.desync.com%3A6969"],"infoHash":"ccb17d7e18e39e132f047c7aeb97b604d0a7e437","infoHashBuffer":{"type":"Buffer","data":[204,177,125,126,24,227,158,19,47,4,124,122,235,151,182,4,208,167,228,55]},"announce":[],"urlList":[]}}